<svg width="28" height="37" viewBox="0 0 28 37" fill="none" xmlns="http://www.w3.org/2000/svg">
<path d="M26.7273 0H5.40909C5.23409 0 5.09091 0.148661 5.09091 0.330357V2.64286C5.09091 2.82455 5.23409 2.97321 5.40909 2.97321H25.1364V31.3839C25.1364 31.5656 25.2795 31.7143 25.4545 31.7143H27.6818C27.8568 31.7143 28 31.5656 28 31.3839V1.32143C28 0.590513 27.4312 0 26.7273 0ZM21.6364 5.28571H1.27273C0.56875 5.28571 0 5.87623 0 6.60714V28.5222C0 28.8732 0.135227 29.2077 0.373863 29.4555L7.26648 36.6118C7.35398 36.7027 7.45341 36.777 7.5608 36.839V36.9174H7.72784C7.86704 36.9711 8.0142 37 8.16534 37H21.6364C22.3403 37 22.9091 36.4095 22.9091 35.6786V6.60714C22.9091 5.87623 22.3403 5.28571 21.6364 5.28571ZM7.55682 32.7136L4.13239 29.154H7.55682V32.7136ZM20.0455 34.0268H10.1023V28.1629C10.1023 27.2503 9.39034 26.5112 8.51136 26.5112H2.86364V8.25893H20.0455V34.0268Z" fill="black" fill-opacity="0.38"/>
</svg>
