<svg width="36" height="38" viewBox="0 0 36 38" fill="none" xmlns="http://www.w3.org/2000/svg">
<path d="M10.875 3.625H10.5C10.7063 3.625 10.875 3.45625 10.875 3.25V3.625H25.125V3.25C25.125 3.45625 25.2938 3.625 25.5 3.625H25.125V7H28.5V3.25C28.5 1.59531 27.1547 0.25 25.5 0.25H10.5C8.84531 0.25 7.5 1.59531 7.5 3.25V7H10.875V3.625ZM34.5 7H1.5C0.670312 7 0 7.67031 0 8.5V10C0 10.2063 0.16875 10.375 0.375 10.375H3.20625L4.36406 34.8906C4.43906 36.4891 5.76094 37.75 7.35938 37.75H28.6406C30.2437 37.75 31.5609 36.4938 31.6359 34.8906L32.7937 10.375H35.625C35.8312 10.375 36 10.2063 36 10V8.5C36 7.67031 35.3297 7 34.5 7ZM28.2797 34.375H7.72031L6.58594 10.375H29.4141L28.2797 34.375Z" fill="black" fill-opacity="0.38"/>
</svg>
